<svg width="300" height="76" viewBox="0 0 300 76" fill="none" xmlns="http://www.w3.org/2000/svg" role="img" aria-label="Reverie">
  <defs>
    <linearGradient id="ember2" x1="36" y1="22" x2="36" y2="54" gradientUnits="userSpaceOnUse">
      <stop stop-color="#F6CC8C"></stop><stop offset="1" stop-color="#E8A24A"></stop>
    </linearGradient>
    <mask id="crescent2">
      <rect width="72" height="72" fill="black"></rect>
      <circle cx="36" cy="38" r="25" fill="white"></circle>
      <circle cx="45" cy="33" r="22" fill="black"></circle>
    </mask>
  </defs>
  <circle cx="36" cy="38" r="25" fill="#8F6FE3" opacity="0.16" mask="url(#crescent2)"></circle>
  <circle cx="36" cy="38" r="25" stroke="#C3B0F2" stroke-width="2" mask="url(#crescent2)"></circle>
  <path d="M40 31c0 0 6.5 5.5 6.5 12a6.5 6.5 0 1 1-13 0c0-2.8 1.8-4.6 1.8-6.5 0 1.8 1 2.8 2.3 2.8 1.6 0 2.3-1.5 2.3-3.4 0-2-1-3.7-1.9-5z" fill="url(#ember2)"></path>
  <text x="82" y="50" font-family="&#39;Cormorant Garamond&#39;, Georgia, serif" font-size="44" font-weight="600" letter-spacing="0.5" fill="#F6EFE2">Reverie</text>
</svg>