<svg width="64" height="64" viewBox="0 0 64 64" fill="none" xmlns="http://www.w3.org/2000/svg" role="img" aria-label="Reverie">
  <defs>
    <linearGradient id="ember" x1="32" y1="18" x2="32" y2="50" gradientUnits="userSpaceOnUse">
      <stop stop-color="#F6CC8C"/><stop offset="1" stop-color="#E8A24A"/>
    </linearGradient>
    <mask id="crescent">
      <rect width="64" height="64" fill="black"/>
      <circle cx="32" cy="32" r="24" fill="white"/>
      <circle cx="41" cy="27" r="21" fill="black"/>
    </mask>
  </defs>
  <rect width="64" height="64" rx="14" fill="#14111c"/>
  <circle cx="32" cy="32" r="24" fill="#8F6FE3" opacity="0.16" mask="url(#crescent)"/>
  <circle cx="32" cy="32" r="24" stroke="#C3B0F2" stroke-width="2" mask="url(#crescent)"/>
  <path d="M35.6 25c0 0 6.2 5.3 6.2 11.5a6.2 6.2 0 1 1-12.4 0c0-2.6 1.8-4.4 1.8-6.2 0 1.8 0.9 2.6 2.2 2.6 1.5 0 2.2-1.4 2.2-3.2 0-2-0.9-3.5-1.8-4.8z" fill="url(#ember)"/>
  <circle cx="35.6" cy="39" r="2.1" fill="#1A1206" opacity="0.25"/>
</svg>